<?xml version="1.0" encoding="utf-8"?>
<!-- Generator: Adobe Illustrator 22.1.0, SVG Export Plug-In . SVG Version: 6.00 Build 0)  -->
<svg version="1.1" id="Camada_1" xmlns="http://www.w3.org/2000/svg" xmlns:xlink="http://www.w3.org/1999/xlink" x="0px" y="0px"
	 viewBox="0 0 87.2 56" style="enable-background:new 0 0 87.2 56;" xml:space="preserve">
<style type="text/css">
	.st0{fill:#379AD1;}
	.st1{fill:#0D7D57;}
	.st2{fill:#1F3F58;}
	.st3{fill:#FFEB00;}
	.st4{fill:#CD2C2A;}
</style>
<g>
	<path class="st0" d="M46.2,12.9h8.3c0.4,0,0.8-0.2,1.1-0.4c0.3-0.3,0.4-0.7,0.4-1.1V3.1c0-0.4-0.2-0.8-0.4-1.1
		c-0.3-0.3-0.7-0.4-1.1-0.4h-8.3c-0.4,0-0.8,0.2-1.1,0.4c-0.3,0.3-0.4,0.7-0.4,1.1v8.3c0,0.4,0.2,0.8,0.4,1.1
		C45.4,12.7,45.8,12.9,46.2,12.9 M54.5,14h-8.3c-0.7,0-1.4-0.3-1.9-0.8c-0.5-0.5-0.8-1.1-0.8-1.9V3.1c0-0.7,0.3-1.4,0.8-1.9
		c0.5-0.5,1.1-0.8,1.9-0.8h8.3c0.7,0,1.4,0.3,1.9,0.8c0.5,0.5,0.8,1.1,0.8,1.9v8.3c0,0.7-0.3,1.4-0.8,1.9C55.9,13.7,55.2,14,54.5,14
		z"/>
	<path class="st1" d="M46.2,21.7H50c0.1,0,0.3-0.1,0.4-0.2c0.1-0.1,0.2-0.2,0.2-0.4v-3.8c0-0.1-0.1-0.3-0.2-0.4
		c-0.1-0.1-0.2-0.2-0.4-0.2h-3.8c-0.1,0-0.3,0.1-0.4,0.2c-0.1,0.1-0.2,0.2-0.2,0.4v3.8c0,0.1,0.1,0.3,0.2,0.4
		C45.9,21.6,46,21.7,46.2,21.7 M50,22.5h-3.8c-0.4,0-0.7-0.1-0.9-0.4h0c-0.2-0.2-0.4-0.6-0.4-0.9v-3.8c0-0.4,0.1-0.7,0.4-0.9h0
		c0.2-0.2,0.6-0.4,0.9-0.4H50c0.4,0,0.7,0.1,0.9,0.4l0,0c0.2,0.2,0.4,0.6,0.4,0.9v3.8c0,0.4-0.1,0.7-0.4,0.9l0,0
		C50.7,22.3,50.4,22.5,50,22.5z"/>
	<polygon class="st2" points="51.4,50.5 51.4,50.1 53.9,50.1 53.9,50.5 52.9,50.5 52.9,54.7 52.4,54.7 52.4,50.5 	"/>
	<path class="st2" d="M57.4,53.6l0.4,0.2c-0.1,0.2-0.3,0.4-0.4,0.6c-0.2,0.1-0.3,0.3-0.5,0.3c-0.2,0.1-0.4,0.1-0.7,0.1
		c-0.6,0-1-0.2-1.3-0.5c-0.3-0.4-0.5-0.8-0.5-1.2c0-0.4,0.1-0.8,0.4-1.2c0.3-0.4,0.8-0.6,1.4-0.6c0.6,0,1,0.2,1.4,0.7
		c0.2,0.3,0.4,0.7,0.4,1.2h-3.1c0,0.4,0.1,0.7,0.4,1c0.2,0.3,0.5,0.4,0.9,0.4c0.2,0,0.3,0,0.5-0.1c0.2-0.1,0.3-0.1,0.4-0.2
		C57.1,54,57.2,53.8,57.4,53.6 M57.4,52.6c-0.1-0.2-0.1-0.4-0.3-0.6c-0.1-0.1-0.3-0.3-0.4-0.3c-0.2-0.1-0.4-0.1-0.6-0.1
		c-0.3,0-0.6,0.1-0.9,0.3c-0.2,0.2-0.3,0.4-0.4,0.7H57.4z"/>
	<path class="st2" d="M62,52l-0.3,0.2c-0.3-0.4-0.7-0.6-1.2-0.6c-0.4,0-0.8,0.1-1,0.4c-0.3,0.3-0.4,0.6-0.4,1c0,0.2,0.1,0.5,0.2,0.7
		c0.1,0.2,0.3,0.4,0.5,0.5c0.2,0.1,0.5,0.2,0.7,0.2c0.5,0,0.9-0.2,1.2-0.6L62,54c-0.2,0.2-0.4,0.4-0.7,0.6c-0.3,0.1-0.6,0.2-0.9,0.2
		c-0.5,0-1-0.2-1.3-0.5c-0.4-0.3-0.5-0.8-0.5-1.3c0-0.3,0.1-0.6,0.2-0.9c0.2-0.3,0.4-0.5,0.7-0.7c0.3-0.2,0.6-0.2,1-0.2
		c0.2,0,0.4,0,0.7,0.1c0.2,0.1,0.4,0.2,0.5,0.3C61.8,51.7,61.9,51.8,62,52"/>
	<path class="st2" d="M62.8,51.3h0.4v0.6c0.2-0.2,0.4-0.4,0.6-0.5c0.2-0.1,0.4-0.2,0.7-0.2c0.3,0,0.5,0.1,0.7,0.2
		c0.2,0.1,0.3,0.3,0.4,0.5c0.1,0.2,0.1,0.6,0.1,1v1.8h-0.4v-1.6c0-0.4,0-0.7-0.1-0.8c0-0.2-0.1-0.4-0.3-0.5
		c-0.1-0.1-0.3-0.2-0.6-0.2c-0.3,0-0.5,0.1-0.7,0.3c-0.2,0.2-0.3,0.4-0.4,0.7c0,0.2-0.1,0.5-0.1,0.9v1.3h-0.4V51.3z"/>
	<path class="st2" d="M68.4,51.2c0.5,0,1,0.2,1.3,0.6c0.3,0.3,0.5,0.8,0.5,1.2c0,0.5-0.2,0.9-0.5,1.3c-0.3,0.4-0.8,0.5-1.3,0.5
		c-0.5,0-1-0.2-1.3-0.5c-0.3-0.4-0.5-0.8-0.5-1.3c0-0.5,0.2-0.9,0.5-1.2C67.4,51.4,67.8,51.2,68.4,51.2 M68.4,51.6
		c-0.4,0-0.7,0.1-0.9,0.4c-0.3,0.3-0.4,0.6-0.4,1c0,0.2,0.1,0.5,0.2,0.7c0.1,0.2,0.3,0.4,0.5,0.5c0.2,0.1,0.4,0.2,0.7,0.2
		c0.2,0,0.5-0.1,0.7-0.2c0.2-0.1,0.4-0.3,0.5-0.5c0.1-0.2,0.2-0.4,0.2-0.7c0-0.4-0.1-0.7-0.4-1C69,51.8,68.7,51.6,68.4,51.6z"/>
	<rect x="70.9" y="50" class="st2" width="0.4" height="4.7"/>
	<path class="st2" d="M73.9,51.2c0.5,0,1,0.2,1.3,0.6c0.3,0.3,0.5,0.8,0.5,1.2c0,0.5-0.2,0.9-0.5,1.3c-0.3,0.4-0.8,0.5-1.3,0.5
		c-0.5,0-1-0.2-1.3-0.5c-0.3-0.4-0.5-0.8-0.5-1.3c0-0.5,0.2-0.9,0.5-1.2C72.9,51.4,73.3,51.2,73.9,51.2 M73.9,51.6
		c-0.4,0-0.7,0.1-0.9,0.4c-0.3,0.3-0.4,0.6-0.4,1c0,0.2,0.1,0.5,0.2,0.7c0.1,0.2,0.3,0.4,0.5,0.5c0.2,0.1,0.4,0.2,0.7,0.2
		c0.2,0,0.5-0.1,0.7-0.2c0.2-0.1,0.4-0.3,0.5-0.5c0.1-0.2,0.2-0.4,0.2-0.7c0-0.4-0.1-0.7-0.4-1C74.5,51.8,74.2,51.6,73.9,51.6z"/>
	<path class="st2" d="M79.4,51.3h0.4V54c0,0.5,0,0.8-0.1,1.1c-0.1,0.3-0.3,0.6-0.6,0.7c-0.3,0.2-0.6,0.3-1,0.3c-0.3,0-0.6,0-0.8-0.1
		c-0.2-0.1-0.4-0.2-0.6-0.3c-0.1-0.1-0.3-0.3-0.4-0.6h0.5c0.1,0.2,0.3,0.4,0.5,0.5c0.2,0.1,0.5,0.2,0.8,0.2c0.3,0,0.6-0.1,0.8-0.2
		c0.2-0.1,0.4-0.3,0.4-0.4c0.1-0.2,0.1-0.4,0.1-0.8v-0.2c-0.2,0.2-0.4,0.4-0.6,0.5c-0.2,0.1-0.5,0.2-0.8,0.2c-0.3,0-0.6-0.1-0.9-0.2
		c-0.3-0.2-0.5-0.4-0.6-0.6c-0.1-0.3-0.2-0.6-0.2-0.9c0-0.3,0.1-0.6,0.2-0.9c0.2-0.3,0.4-0.5,0.7-0.6c0.3-0.2,0.6-0.2,0.9-0.2
		c0.3,0,0.5,0.1,0.7,0.2c0.2,0.1,0.4,0.3,0.6,0.5V51.3z M78.1,51.6c-0.2,0-0.5,0.1-0.7,0.2c-0.2,0.1-0.4,0.3-0.5,0.5
		c-0.1,0.2-0.2,0.4-0.2,0.7c0,0.4,0.1,0.7,0.4,0.9c0.3,0.2,0.6,0.4,1,0.4c0.4,0,0.7-0.1,1-0.4c0.2-0.2,0.4-0.6,0.4-1
		c0-0.3-0.1-0.5-0.2-0.7c-0.1-0.2-0.3-0.4-0.5-0.5C78.6,51.7,78.3,51.6,78.1,51.6z"/>
	<path class="st2" d="M80.9,49.9c0.1,0,0.2,0,0.3,0.1c0.1,0.1,0.1,0.2,0.1,0.3c0,0.1,0,0.2-0.1,0.3c-0.1,0.1-0.2,0.1-0.3,0.1
		c-0.1,0-0.2,0-0.3-0.1c-0.1-0.1-0.1-0.2-0.1-0.3c0-0.1,0-0.2,0.1-0.3C80.8,49.9,80.8,49.9,80.9,49.9 M80.7,51.3h0.4v3.4h-0.4V51.3z
		"/>
	<path class="st2" d="M85.5,51.3v3.4H85v-0.6c-0.2,0.2-0.4,0.4-0.6,0.5c-0.2,0.1-0.5,0.2-0.8,0.2c-0.5,0-0.9-0.2-1.2-0.5
		c-0.3-0.4-0.5-0.8-0.5-1.3c0-0.5,0.2-0.9,0.5-1.3c0.3-0.3,0.8-0.5,1.2-0.5c0.3,0,0.5,0.1,0.8,0.2c0.2,0.1,0.4,0.3,0.6,0.5v-0.6
		H85.5z M83.7,51.6c-0.2,0-0.5,0.1-0.7,0.2c-0.2,0.1-0.4,0.3-0.5,0.5c-0.1,0.2-0.2,0.4-0.2,0.7c0,0.2,0.1,0.5,0.2,0.7
		c0.1,0.2,0.3,0.4,0.5,0.5c0.2,0.1,0.4,0.2,0.7,0.2c0.2,0,0.5-0.1,0.7-0.2c0.2-0.1,0.4-0.3,0.5-0.5c0.1-0.2,0.2-0.4,0.2-0.7
		c0-0.4-0.1-0.7-0.4-1C84.4,51.8,84.1,51.6,83.7,51.6z"/>
	<path class="st2" d="M5.5,45.4c0.8,0,1.4-0.6,1.4-1.4c0-0.6-0.2-1-0.7-1.2c-1-0.4-0.8-0.3-1.8-0.6c-1-0.4-2-1.1-2.6-1.9
		c-0.4-0.5-0.6-1.2-0.6-1.9c0-1.2,0.4-2.2,1.3-3c0.8-0.8,1.8-1.3,3-1.3c1.2,0,2.2,0.4,3,1.3c0.8,0.8,1.3,1.8,1.3,3H7
		c0-0.8-0.6-1.4-1.4-1.4c-0.8,0-1.4,0.6-1.4,1.4c0,0.5,0.2,0.9,0.6,1.2c0.8,0.5,0.7,0.4,1.7,0.7c1.1,0.3,2.1,1,2.7,1.9
		c0.4,0.5,0.6,1.2,0.6,2c0,1.2-0.4,2.2-1.3,3c-0.8,0.8-1.8,1.3-3,1.3c-1.2,0-2.2-0.4-3-1.3c-0.8-0.8-1.3-1.8-1.3-3h2.8
		C4.1,44.7,4.7,45.4,5.5,45.4L5.5,45.4z"/>
	<path class="st2" d="M17.8,34c2,0,3.6,0.7,5,2.1c1.4,1.4,2.1,3.1,2.1,5c0,1.4-0.4,2.7-1.2,3.9l1.2,1.2l-2,2l-1.2-1.2
		c-1.2,0.8-2.5,1.2-3.9,1.2c-2,0-3.6-0.7-5-2.1c-1.4-1.4-2.1-3.1-2.1-5c0-2,0.7-3.6,2.1-5C14.2,34.7,15.9,34,17.8,34L17.8,34z
		 M19.8,41.1l1.9,1.8c0.3-0.6,0.4-1.2,0.4-1.8c0-1.2-0.4-2.2-1.3-3c-0.8-0.8-1.8-1.3-3-1.3c-1.2,0-2.2,0.4-3,1.3
		c-0.8,0.8-1.2,1.8-1.2,3c0,1.2,0.4,2.2,1.2,3c0.8,0.8,1.8,1.2,3,1.2c0.6,0,1.3-0.1,1.8-0.4l-1.9-1.8L19.8,41.1z"/>
	<path class="st2" d="M37.4,34.1v5.7v2.8c0,1.6-0.6,2.9-1.7,4c-1.1,1.1-2.4,1.7-4,1.7c-1.6,0-2.9-0.6-4-1.7c-1.1-1.1-1.7-2.4-1.7-4
		v-2.8v-5.7h2.8v5.7v2.5v0.3c0,0.8,0.3,1.4,0.8,2c0.6,0.6,1.2,0.8,2,0.8c0.8,0,1.4-0.3,2-0.8c0.6-0.6,0.8-1.2,0.8-2v-0.3v-2.5v-5.7
		H37.4z"/>
	<path class="st2" d="M41.3,46c-0.3,0.7-0.6,1.4-1,2.1h-3l6.4-14.3l6.4,14.3h-3c-0.3-0.7-0.6-1.4-0.9-2.1L41.3,46L41.3,46z
		 M44.9,43.5l-1.2-2.9l-1.2,2.9H44.9z"/>
	<path class="st2" d="M54.6,34.1c1.9,0,3.8,0.7,5.1,2.1c2.5,2.5,2.5,7.4,0,9.9c-1.4,1.4-3.2,2.1-5.1,2.1h-3.5v-14L54.6,34.1
		L54.6,34.1z M54.6,45.3c1.2,0,2.2-0.3,3-1.1c0.8-0.8,1.1-1.9,1.1-3.1c0-1.2-0.3-2.2-1.2-3.1c-0.8-0.8-1.9-1.2-3.1-1.2h-0.6v8.4
		H54.6L54.6,45.3z"/>
	<path class="st2" d="M62.7,34h4.6c1.4,0,2.7,0.5,3.7,1.4c1,1,1.4,1.9,1.4,3.2v0.4c0,1-0.3,1.8-0.9,2.7c-0.6,0.8-1.1,1.1-2,1.4
		l3.2,4.9h-3.4l-3.6-5.5v5.5h-2.8L62.7,34z M67.5,40.8c0.6,0,0.9-0.1,1.3-0.6c0.4-0.4,0.6-0.9,0.6-1.5c0-0.6-0.1-1-0.6-1.4
		c-0.4-0.4-1.1-0.6-1.7-0.6h-1.6v4L67.5,40.8z"/>
	<path class="st2" d="M77.5,46c-0.3,0.7-0.6,1.4-1,2.1h-3l6.4-14.3l6.4,14.3h-3c-0.3-0.7-0.6-1.4-0.9-2.1L77.5,46L77.5,46z
		 M81.1,43.5l-1.2-2.9l-1.2,2.9H81.1z"/>
	<path class="st3" d="M39.4,19.2h6.1c0.4,0,0.8-0.2,1.1-0.5c0.3-0.3,0.5-0.7,0.5-1.1v-6.1c0-0.4-0.2-0.8-0.5-1.1
		c-0.3-0.3-0.7-0.5-1.1-0.5h-6.1c-0.4,0-0.8,0.2-1.1,0.5c-0.3,0.3-0.5,0.7-0.5,1.1v6.1c0,0.4,0.2,0.8,0.5,1.1
		C38.6,19,39,19.2,39.4,19.2 M45.5,20.1h-6.1c-0.7,0-1.3-0.3-1.8-0.8c-0.5-0.5-0.8-1.1-0.8-1.8v-6.1c0-0.7,0.3-1.3,0.8-1.8
		c0.5-0.5,1.1-0.8,1.8-0.8h6.1c0.7,0,1.3,0.3,1.8,0.8c0.5,0.5,0.8,1.1,0.8,1.8v6.1c0,0.7-0.3,1.3-0.8,1.8
		C46.9,19.8,46.2,20.1,45.5,20.1z"/>
	<path class="st4" d="M31.4,27.1h8.3c0.4,0,0.8-0.2,1.1-0.4c0.3-0.3,0.4-0.7,0.4-1.1v-8.3c0-0.4-0.2-0.8-0.4-1.1
		c-0.3-0.3-0.7-0.4-1.1-0.4h-8.3c-0.4,0-0.8,0.2-1.1,0.4c-0.3,0.3-0.4,0.7-0.4,1.1v8.3c0,0.4,0.2,0.8,0.4,1.1
		C30.6,26.9,31,27.1,31.4,27.1 M39.7,28.2h-8.3c-0.7,0-1.4-0.3-1.9-0.8c-0.5-0.5-0.8-1.1-0.8-1.9v-8.3c0-0.7,0.3-1.4,0.8-1.9
		c0.5-0.5,1.1-0.8,1.9-0.8h8.3c0.7,0,1.4,0.3,1.9,0.8c0.5,0.5,0.8,1.1,0.8,1.9v8.3c0,0.7-0.3,1.4-0.8,1.9
		C41.1,27.9,40.4,28.2,39.7,28.2z"/>
</g>
</svg>
